<svg width="16" height="16" viewBox="0 0 16 16" fill="none" xmlns="http://www.w3.org/2000/svg">
<path d="M6.25 11H7.75V7.75H11V6.25H7.75V3H6.25V6.25H3V7.75H6.25V11ZM1.5 14C1.0875 14 0.734375 13.8531 0.440625 13.5594C0.146875 13.2656 0 12.9125 0 12.5V1.5C0 1.0875 0.146875 0.734376 0.440625 0.440626C0.734375 0.146876 1.0875 0 1.5 0H12.5C12.9125 0 13.2656 0.146876 13.5594 0.440626C13.8531 0.734376 14 1.0875 14 1.5V12.5C14 12.9125 13.8531 13.2656 13.5594 13.5594C13.2656 13.8531 12.9125 14 12.5 14H1.5ZM1.5 12.5H12.5V1.5H1.5V12.5Z" fill="#AAAAAA"/>
</svg>
