<svg width="19" height="19" viewBox="0 0 18 18" fill="none" xmlns="http://www.w3.org/2000/svg">
<mask id="mask0_19_188" style="mask-type:alpha" maskUnits="userSpaceOnUse" x="0" y="0" width="19" height="19">
<rect width="18.2979" height="18.2979" fill="#D9D9D9"/>
</mask>
<g mask="url(#mask0_19_188)">
<path d="M4.11697 15.5532C3.73958 15.5532 3.4165 15.4188 3.14775 15.1501C2.879 14.8813 2.74463 14.5583 2.74463 14.1809V4.11704C2.74463 3.73442 2.87805 3.40686 3.14489 3.13437C3.41174 2.86189 3.73576 2.732 4.11697 2.7447H10.7118L9.33949 4.11704H4.11697V14.1809H14.1808V8.95836L15.5531 7.58602V14.1809C15.5531 14.5583 15.4188 14.8813 15.15 15.1501C14.8813 15.4188 14.5582 15.5532 14.1808 15.5532H4.11697ZM7.3191 10.9787V8.06252L14.0664 1.31518C14.2062 1.17541 14.3587 1.07375 14.5239 1.01022C14.6891 0.946684 14.8574 0.914917 15.029 0.914917C15.212 0.914917 15.3864 0.946684 15.5522 1.01022C15.718 1.07375 15.8704 1.17403 16.0095 1.31105L16.9827 2.28726C17.1224 2.42703 17.2241 2.58067 17.2876 2.74817C17.3512 2.91568 17.3829 3.08606 17.3829 3.25933C17.3829 3.43292 17.351 3.60361 17.2872 3.77141C17.2234 3.9392 17.1219 4.09253 16.9827 4.23141L10.2353 10.9787H7.3191ZM8.69144 9.60641H9.66351L14.0664 5.20348L13.5899 4.70791L13.0944 4.23141L8.69144 8.63433V9.60641Z" fill="#535353"/>
</g>
</svg>
