<?xml version="1.0" encoding="UTF-8" standalone="no"?>
<!DOCTYPE svg PUBLIC "-//W3C//DTD SVG 1.1//EN" "http://www.w3.org/Graphics/SVG/1.1/DTD/svg11.dtd">
<svg width="100%" height="100%" viewBox="0 0 1000 539" version="1.1" xmlns="http://www.w3.org/2000/svg" xmlns:xlink="http://www.w3.org/1999/xlink" xml:space="preserve" xmlns:serif="http://www.serif.com/" style="fill-rule:evenodd;clip-rule:evenodd;stroke-linejoin:round;stroke-miterlimit:2;">
    <g transform="matrix(1.08415,0,0,1.08415,0,0)">
        <g>
            <rect x="0" y="0" width="993.334" height="496.667" style="fill:white;"/>
            <rect x="0" y="0" width="70.952" height="70.952" style="fill:white;"/>
            <path d="M0,35.48C19.464,35.48 35.48,19.464 35.48,0L0,0L0,35.48" style="fill:rgb(237,242,253);fill-rule:nonzero;"/>
            <path d="M35.48,35.48C54.944,35.48 70.96,19.464 70.96,0L35.48,0L35.48,35.48" style="fill:rgb(220,237,254);fill-rule:nonzero;"/>
            <path d="M0,35.48C-0,54.944 16.016,70.96 35.48,70.96L35.48,35.48L0,35.48" style="fill:rgb(220,237,254);fill-rule:nonzero;"/>
            <path d="M35.48,70.96C54.944,70.96 70.96,54.944 70.96,35.48L35.48,35.48L35.48,70.96" style="fill:rgb(220,237,254);fill-rule:nonzero;"/>
            <rect x="70.952" y="0" width="70.952" height="70.952" style="fill:white;"/>
            <path d="M70.95,0C90.414,-0 106.43,16.016 106.43,35.48L70.95,0C70.95,19.464 86.966,35.48 106.43,35.48" style="fill:rgb(237,242,253);fill-rule:nonzero;"/>
            <path d="M106.43,0C125.894,-0 141.91,16.016 141.91,35.48L106.43,0C106.43,19.464 122.446,35.48 141.91,35.48" style="fill:rgb(209,218,240);fill-rule:nonzero;"/>
            <path d="M70.95,35.48C90.414,35.48 106.43,51.496 106.43,70.96L70.95,35.48C70.95,54.944 86.966,70.96 106.43,70.96" style="fill:rgb(209,218,240);fill-rule:nonzero;"/>
            <path d="M106.43,35.48C106.43,54.944 122.446,70.96 141.91,70.96L141.91,35.48L106.43,35.48" style="fill:rgb(209,218,240);fill-rule:nonzero;"/>
            <rect x="141.905" y="0" width="70.952" height="70.952" style="fill:white;"/>
            <path d="M141.9,35.48C141.9,16.016 157.916,-0 177.38,-0L141.9,35.48C161.364,35.48 177.38,19.464 177.38,0" style="fill:rgb(237,242,253);fill-rule:nonzero;"/>
            <path d="M177.38,35.48C196.844,35.48 212.86,19.464 212.86,0L177.38,0L177.38,35.48" style="fill:rgb(220,237,254);fill-rule:nonzero;"/>
            <path d="M141.9,35.48C141.9,54.944 157.916,70.96 177.38,70.96L177.38,35.48L141.9,35.48" style="fill:rgb(209,218,240);fill-rule:nonzero;"/>
            <path d="M177.38,35.48C196.844,35.48 212.86,51.496 212.86,70.96L177.38,70.96L177.38,35.48" style="fill:rgb(220,237,254);fill-rule:nonzero;"/>
            <rect x="212.857" y="0" width="70.952" height="70.952" style="fill:white;"/>
            <path d="M212.86,35.48C212.86,16.016 228.876,-0 248.34,-0L248.34,35.48L212.86,35.48" style="fill:rgb(209,218,240);fill-rule:nonzero;"/>
            <path d="M248.33,35.48C267.794,35.48 283.81,19.464 283.81,0L248.33,0L248.33,35.48" style="fill:rgb(209,218,240);fill-rule:nonzero;"/>
            <path d="M212.86,70.96C212.86,51.496 228.876,35.48 248.34,35.48L248.34,70.96L212.86,70.96" style="fill:rgb(209,218,240);fill-rule:nonzero;"/>
            <path d="M248.33,35.48C267.794,35.48 283.81,51.496 283.81,70.96L248.33,35.48C248.33,54.944 264.346,70.96 283.81,70.96" style="fill:rgb(220,237,254);fill-rule:nonzero;"/>
            <rect x="283.81" y="0" width="70.952" height="70.952" style="fill:white;"/>
            <path d="M283.81,0C303.274,-0 319.29,16.016 319.29,35.48L283.81,0C283.81,19.464 299.826,35.48 319.29,35.48" style="fill:rgb(220,237,254);fill-rule:nonzero;"/>
            <path d="M319.29,35.48C319.29,16.016 335.306,-0 354.77,-0L319.29,35.48C338.754,35.48 354.77,19.464 354.77,0" style="fill:rgb(220,237,254);fill-rule:nonzero;"/>
            <path d="M283.81,35.48C303.274,35.48 319.29,51.496 319.29,70.96L283.81,35.48C283.81,54.944 299.826,70.96 319.29,70.96" style="fill:rgb(237,242,253);fill-rule:nonzero;"/>
            <path d="M319.29,35.48C338.754,35.48 354.77,51.496 354.77,70.96L319.29,70.96L319.29,35.48" style="fill:rgb(209,218,240);fill-rule:nonzero;"/>
            <rect x="354.762" y="0" width="70.952" height="70.952" style="fill:white;"/>
            <path d="M354.76,0C374.224,-0 390.24,16.016 390.24,35.48L354.76,0C354.76,19.464 370.776,35.48 390.24,35.48" style="fill:rgb(237,242,253);fill-rule:nonzero;"/>
            <path d="M390.24,35.48C409.704,35.48 425.72,19.464 425.72,0L390.24,0L390.24,35.48" style="fill:rgb(220,237,254);fill-rule:nonzero;"/>
            <path d="M354.76,70.96C374.224,70.96 390.24,54.944 390.24,35.48L354.76,35.48L354.76,70.96" style="fill:rgb(237,242,253);fill-rule:nonzero;"/>
            <path d="M390.24,35.48C390.24,54.944 406.256,70.96 425.72,70.96L425.72,35.48L390.24,35.48" style="fill:rgb(209,218,240);fill-rule:nonzero;"/>
            <rect x="425.715" y="0" width="70.952" height="70.952" style="fill:white;"/>
            <path d="M425.71,35.48C425.71,16.016 441.726,-0 461.19,-0L461.19,35.48L425.71,35.48" style="fill:rgb(209,218,240);fill-rule:nonzero;"/>
            <path d="M461.19,35.48C480.654,35.48 496.67,19.464 496.67,0L461.19,0L461.19,35.48" style="fill:rgb(209,218,240);fill-rule:nonzero;"/>
            <path d="M425.71,70.96C445.174,70.96 461.19,54.944 461.19,35.48L425.71,35.48L425.71,70.96" style="fill:rgb(237,242,253);fill-rule:nonzero;"/>
            <path d="M461.19,35.48C480.654,35.48 496.67,51.496 496.67,70.96L461.19,70.96L461.19,35.48" style="fill:rgb(237,242,253);fill-rule:nonzero;"/>
            <rect x="496.667" y="0" width="70.952" height="70.952" style="fill:white;"/>
            <path d="M496.67,35.48C516.134,35.48 532.15,19.464 532.15,0L496.67,0L496.67,35.48" style="fill:rgb(237,242,253);fill-rule:nonzero;"/>
            <path d="M532.14,0C551.604,-0 567.62,16.016 567.62,35.48L532.14,0C532.14,19.464 548.156,35.48 567.62,35.48" style="fill:rgb(237,242,253);fill-rule:nonzero;"/>
            <path d="M496.67,35.48C516.134,35.48 532.15,51.496 532.15,70.96L496.67,70.96L496.67,35.48" style="fill:rgb(209,218,240);fill-rule:nonzero;"/>
            <path d="M532.14,35.48C551.604,35.48 567.62,51.496 567.62,70.96L532.14,35.48C532.14,54.944 548.156,70.96 567.62,70.96" style="fill:rgb(220,237,254);fill-rule:nonzero;"/>
            <rect x="567.619" y="0" width="70.952" height="70.952" style="fill:white;"/>
            <path d="M567.62,0C567.62,19.464 583.636,35.48 603.1,35.48L603.1,0L567.62,0" style="fill:rgb(209,218,240);fill-rule:nonzero;"/>
            <path d="M603.1,0C622.564,-0 638.58,16.016 638.58,35.48L603.1,35.48L603.1,0" style="fill:rgb(220,237,254);fill-rule:nonzero;"/>
            <path d="M567.62,70.96C567.62,51.496 583.636,35.48 603.1,35.48L567.62,70.96C587.084,70.96 603.1,54.944 603.1,35.48" style="fill:rgb(209,218,240);fill-rule:nonzero;"/>
            <path d="M603.1,70.96C603.1,51.496 619.116,35.48 638.58,35.48L603.1,70.96C622.564,70.96 638.58,54.944 638.58,35.48" style="fill:rgb(220,237,254);fill-rule:nonzero;"/>
            <rect x="638.572" y="0" width="70.952" height="70.952" style="fill:white;"/>
            <path d="M638.57,35.48C638.57,16.016 654.586,-0 674.05,-0L638.57,35.48C658.034,35.48 674.05,19.464 674.05,0" style="fill:rgb(209,218,240);fill-rule:nonzero;"/>
            <path d="M674.05,0C693.514,-0 709.53,16.016 709.53,35.48L674.05,35.48L674.05,0" style="fill:rgb(237,242,253);fill-rule:nonzero;"/>
            <path d="M638.57,35.48C658.034,35.48 674.05,51.496 674.05,70.96L638.57,35.48C638.57,54.944 654.586,70.96 674.05,70.96" style="fill:rgb(209,218,240);fill-rule:nonzero;"/>
            <path d="M674.05,35.48C693.514,35.48 709.53,51.496 709.53,70.96L674.05,70.96L674.05,35.48" style="fill:rgb(237,242,253);fill-rule:nonzero;"/>
            <rect x="709.524" y="0" width="70.952" height="70.952" style="fill:white;"/>
            <path d="M709.52,35.48C709.52,16.016 725.536,-0 745,-0L709.52,35.48C728.984,35.48 745,19.464 745,0" style="fill:rgb(220,237,254);fill-rule:nonzero;"/>
            <path d="M745,0C745,19.464 761.016,35.48 780.48,35.48L780.48,0L745,0" style="fill:rgb(237,242,253);fill-rule:nonzero;"/>
            <path d="M709.52,35.48C728.984,35.48 745,51.496 745,70.96L709.52,70.96L709.52,35.48" style="fill:rgb(220,237,254);fill-rule:nonzero;"/>
            <path d="M745,35.48C764.464,35.48 780.48,51.496 780.48,70.96L745,35.48C745,54.944 761.016,70.96 780.48,70.96" style="fill:rgb(220,237,254);fill-rule:nonzero;"/>
            <rect x="780.477" y="0" width="70.952" height="70.952" style="fill:white;"/>
            <path d="M780.48,35.48C780.48,16.016 796.496,-0 815.96,-0L815.96,35.48L780.48,35.48" style="fill:rgb(220,237,254);fill-rule:nonzero;"/>
            <path d="M815.95,35.48C815.95,16.016 831.966,-0 851.43,-0L851.43,35.48L815.95,35.48" style="fill:rgb(209,218,240);fill-rule:nonzero;"/>
            <path d="M780.48,35.48C799.944,35.48 815.96,51.496 815.96,70.96L780.48,70.96L780.48,35.48" style="fill:rgb(209,218,240);fill-rule:nonzero;"/>
            <path d="M815.95,35.48C815.95,54.944 831.966,70.96 851.43,70.96L851.43,35.48L815.95,35.48" style="fill:rgb(237,242,253);fill-rule:nonzero;"/>
            <rect x="851.429" y="0" width="70.952" height="70.952" style="fill:white;"/>
            <path d="M851.43,35.48C870.894,35.48 886.91,19.464 886.91,0L851.43,0L851.43,35.48" style="fill:rgb(209,218,240);fill-rule:nonzero;"/>
            <path d="M886.91,0C886.91,19.464 902.926,35.48 922.39,35.48L922.39,0L886.91,0" style="fill:rgb(237,242,253);fill-rule:nonzero;"/>
            <path d="M851.43,70.96C851.43,51.496 867.446,35.48 886.91,35.48L886.91,70.96L851.43,70.96" style="fill:rgb(237,242,253);fill-rule:nonzero;"/>
            <path d="M886.91,70.96C886.91,51.496 902.926,35.48 922.39,35.48L922.39,70.96L886.91,70.96" style="fill:rgb(209,218,240);fill-rule:nonzero;"/>
            <rect x="922.382" y="0" width="70.952" height="70.952" style="fill:white;"/>
            <path d="M922.38,0C941.844,-0 957.86,16.016 957.86,35.48L922.38,35.48L922.38,0" style="fill:rgb(209,218,240);fill-rule:nonzero;"/>
            <path d="M922.38,70.96C941.844,70.96 957.86,54.944 957.86,35.48L922.38,35.48L922.38,70.96" style="fill:rgb(237,242,253);fill-rule:nonzero;"/>
            <rect x="0" y="70.952" width="70.952" height="70.952" style="fill:white;"/>
            <path d="M0,106.43C19.464,106.43 35.48,90.414 35.48,70.95L0,70.95L0,106.43" style="fill:rgb(237,242,253);fill-rule:nonzero;"/>
            <path d="M35.48,106.43C54.944,106.43 70.96,90.414 70.96,70.95L35.48,70.95L35.48,106.43" style="fill:rgb(220,237,254);fill-rule:nonzero;"/>
            <path d="M0,106.43C19.464,106.43 35.48,122.446 35.48,141.91L0,106.43C-0,125.894 16.016,141.91 35.48,141.91" style="fill:rgb(220,237,254);fill-rule:nonzero;"/>
            <path d="M35.48,106.43C54.944,106.43 70.96,122.446 70.96,141.91L35.48,106.43C35.48,125.894 51.496,141.91 70.96,141.91" style="fill:rgb(209,218,240);fill-rule:nonzero;"/>
            <rect x="70.952" y="70.952" width="70.952" height="70.952" style="fill:white;"/>
            <path d="M70.95,106.43C70.95,86.966 86.966,70.95 106.43,70.95L70.95,106.43C90.414,106.43 106.43,90.414 106.43,70.95" style="fill:rgb(220,237,254);fill-rule:nonzero;"/>
            <path d="M106.43,70.95C125.894,70.95 141.91,86.966 141.91,106.43L106.43,106.43L106.43,70.95" style="fill:rgb(209,218,240);fill-rule:nonzero;"/>
            <path d="M70.95,106.43C70.95,125.894 86.966,141.91 106.43,141.91L106.43,106.43L70.95,106.43" style="fill:rgb(220,237,254);fill-rule:nonzero;"/>
            <path d="M106.43,141.91C106.43,122.446 122.446,106.43 141.91,106.43L141.91,141.91L106.43,141.91" style="fill:rgb(237,242,253);fill-rule:nonzero;"/>
            <rect x="141.905" y="70.952" width="70.952" height="70.952" style="fill:white;"/>
            <path d="M141.9,70.95C161.364,70.95 177.38,86.966 177.38,106.43L141.9,106.43L141.9,70.95" style="fill:rgb(209,218,240);fill-rule:nonzero;"/>
            <path d="M177.38,106.43C177.38,86.966 193.396,70.95 212.86,70.95L212.86,106.43L177.38,106.43" style="fill:rgb(237,242,253);fill-rule:nonzero;"/>
            <path d="M141.9,141.91C141.9,122.446 157.916,106.43 177.38,106.43L177.38,141.91L141.9,141.91" style="fill:rgb(209,218,240);fill-rule:nonzero;"/>
            <path d="M177.38,141.91C177.38,122.446 193.396,106.43 212.86,106.43L212.86,141.91L177.38,141.91" style="fill:rgb(237,242,253);fill-rule:nonzero;"/>
            <rect x="212.857" y="70.952" width="70.952" height="70.952" style="fill:white;"/>
            <path d="M212.86,70.95C232.324,70.95 248.34,86.966 248.34,106.43L212.86,70.95C212.86,90.414 228.876,106.43 248.34,106.43" style="fill:rgb(209,218,240);fill-rule:nonzero;"/>
            <path d="M248.33,106.43C267.794,106.43 283.81,90.414 283.81,70.95L248.33,70.95L248.33,106.43" style="fill:rgb(237,242,253);fill-rule:nonzero;"/>
            <path d="M212.86,141.91C212.86,122.446 228.876,106.43 248.34,106.43L212.86,141.91C232.324,141.91 248.34,125.894 248.34,106.43" style="fill:rgb(220,237,254);fill-rule:nonzero;"/>
            <path d="M248.33,141.91C248.33,122.446 264.346,106.43 283.81,106.43L283.81,141.91L248.33,141.91" style="fill:rgb(209,218,240);fill-rule:nonzero;"/>
            <rect x="283.81" y="70.952" width="70.952" height="70.952" style="fill:white;"/>
            <path d="M283.81,70.95C283.81,90.414 299.826,106.43 319.29,106.43L319.29,70.95L283.81,70.95" style="fill:rgb(220,237,254);fill-rule:nonzero;"/>
            <path d="M319.29,70.95C319.29,90.414 335.306,106.43 354.77,106.43L354.77,70.95L319.29,70.95" style="fill:rgb(209,218,240);fill-rule:nonzero;"/>
            <path d="M283.81,106.43C303.274,106.43 319.29,122.446 319.29,141.91L283.81,141.91L283.81,106.43" style="fill:rgb(237,242,253);fill-rule:nonzero;"/>
            <path d="M319.29,141.91C319.29,122.446 335.306,106.43 354.77,106.43L354.77,141.91L319.29,141.91" style="fill:rgb(237,242,253);fill-rule:nonzero;"/>
            <rect x="354.762" y="70.952" width="70.952" height="70.952" style="fill:white;"/>
            <path d="M354.76,106.43C374.224,106.43 390.24,90.414 390.24,70.95L354.76,70.95L354.76,106.43" style="fill:rgb(209,218,240);fill-rule:nonzero;"/>
            <path d="M390.24,70.95C390.24,90.414 406.256,106.43 425.72,106.43L425.72,70.95L390.24,70.95" style="fill:rgb(237,242,253);fill-rule:nonzero;"/>
            <path d="M354.76,106.43C354.76,125.894 370.776,141.91 390.24,141.91L390.24,106.43L354.76,106.43" style="fill:rgb(209,218,240);fill-rule:nonzero;"/>
            <path d="M390.24,106.43C409.704,106.43 425.72,122.446 425.72,141.91L390.24,106.43C390.24,125.894 406.256,141.91 425.72,141.91" style="fill:rgb(209,218,240);fill-rule:nonzero;"/>
            <rect x="425.715" y="70.952" width="70.952" height="70.952" style="fill:white;"/>
            <path d="M425.71,70.95C425.71,90.414 441.726,106.43 461.19,106.43L461.19,70.95L425.71,70.95" style="fill:rgb(237,242,253);fill-rule:nonzero;"/>
            <path d="M461.19,70.95C480.654,70.95 496.67,86.966 496.67,106.43L461.19,70.95C461.19,90.414 477.206,106.43 496.67,106.43" style="fill:rgb(209,218,240);fill-rule:nonzero;"/>
            <path d="M425.71,106.43C445.174,106.43 461.19,122.446 461.19,141.91L425.71,106.43C425.71,125.894 441.726,141.91 461.19,141.91" style="fill:rgb(209,218,240);fill-rule:nonzero;"/>
            <path d="M461.19,141.91C461.19,122.446 477.206,106.43 496.67,106.43L461.19,141.91C480.654,141.91 496.67,125.894 496.67,106.43" style="fill:rgb(237,242,253);fill-rule:nonzero;"/>
            <rect x="496.667" y="70.952" width="70.952" height="70.952" style="fill:white;"/>
            <path d="M496.67,106.43C496.67,86.966 512.686,70.95 532.15,70.95L532.15,106.43L496.67,106.43" style="fill:rgb(220,237,254);fill-rule:nonzero;"/>
            <path d="M532.14,70.95C551.604,70.95 567.62,86.966 567.62,106.43L532.14,106.43L532.14,70.95" style="fill:rgb(209,218,240);fill-rule:nonzero;"/>
            <path d="M496.67,106.43C496.67,125.894 512.686,141.91 532.15,141.91L532.15,106.43L496.67,106.43" style="fill:rgb(209,218,240);fill-rule:nonzero;"/>
            <path d="M532.14,141.91C551.604,141.91 567.62,125.894 567.62,106.43L532.14,106.43L532.14,141.91" style="fill:rgb(220,237,254);fill-rule:nonzero;"/>
            <rect x="567.619" y="70.952" width="70.952" height="70.952" style="fill:white;"/>
            <path d="M567.62,106.43C567.62,86.966 583.636,70.95 603.1,70.95L567.62,106.43C587.084,106.43 603.1,90.414 603.1,70.95" style="fill:rgb(237,242,253);fill-rule:nonzero;"/>
            <path d="M603.1,106.43C603.1,86.966 619.116,70.95 638.58,70.95L603.1,106.43C622.564,106.43 638.58,90.414 638.58,70.95" style="fill:rgb(209,218,240);fill-rule:nonzero;"/>
            <path d="M567.62,106.43C587.084,106.43 603.1,122.446 603.1,141.91L567.62,141.91L567.62,106.43" style="fill:rgb(237,242,253);fill-rule:nonzero;"/>
            <path d="M603.1,106.43C603.1,125.894 619.116,141.91 638.58,141.91L638.58,106.43L603.1,106.43" style="fill:rgb(209,218,240);fill-rule:nonzero;"/>
            <rect x="638.572" y="70.952" width="70.952" height="70.952" style="fill:white;"/>
            <path d="M638.57,106.43C658.034,106.43 674.05,90.414 674.05,70.95L638.57,70.95L638.57,106.43" style="fill:rgb(209,218,240);fill-rule:nonzero;"/>
            <path d="M674.05,106.43C674.05,86.966 690.066,70.95 709.53,70.95L709.53,106.43L674.05,106.43" style="fill:rgb(209,218,240);fill-rule:nonzero;"/>
            <path d="M638.57,106.43C658.034,106.43 674.05,122.446 674.05,141.91L638.57,141.91L638.57,106.43" style="fill:rgb(220,237,254);fill-rule:nonzero;"/>
            <path d="M674.05,106.43C693.514,106.43 709.53,122.446 709.53,141.91L674.05,106.43C674.05,125.894 690.066,141.91 709.53,141.91" style="fill:rgb(237,242,253);fill-rule:nonzero;"/>
            <rect x="709.524" y="70.952" width="70.952" height="70.952" style="fill:white;"/>
            <path d="M709.52,70.95C709.52,90.414 725.536,106.43 745,106.43L745,70.95L709.52,70.95" style="fill:rgb(220,237,254);fill-rule:nonzero;"/>
            <path d="M745,70.95C745,90.414 761.016,106.43 780.48,106.43L780.48,70.95L745,70.95" style="fill:rgb(237,242,253);fill-rule:nonzero;"/>
            <path d="M709.52,106.43C709.52,125.894 725.536,141.91 745,141.91L745,106.43L709.52,106.43" style="fill:rgb(237,242,253);fill-rule:nonzero;"/>
            <path d="M745,141.91C745,122.446 761.016,106.43 780.48,106.43L745,141.91C764.464,141.91 780.48,125.894 780.48,106.43" style="fill:rgb(237,242,253);fill-rule:nonzero;"/>
            <rect x="780.477" y="70.952" width="70.952" height="70.952" style="fill:white;"/>
            <path d="M780.48,106.43C780.48,86.966 796.496,70.95 815.96,70.95L815.96,106.43L780.48,106.43" style="fill:rgb(209,218,240);fill-rule:nonzero;"/>
            <path d="M815.95,106.43C815.95,86.966 831.966,70.95 851.43,70.95L815.95,106.43C835.414,106.43 851.43,90.414 851.43,70.95" style="fill:rgb(220,237,254);fill-rule:nonzero;"/>
            <path d="M780.48,106.43C780.48,125.894 796.496,141.91 815.96,141.91L815.96,106.43L780.48,106.43" style="fill:rgb(237,242,253);fill-rule:nonzero;"/>
            <path d="M815.95,141.91C815.95,122.446 831.966,106.43 851.43,106.43L815.95,141.91C835.414,141.91 851.43,125.894 851.43,106.43" style="fill:rgb(209,218,240);fill-rule:nonzero;"/>
            <rect x="851.429" y="70.952" width="70.952" height="70.952" style="fill:white;"/>
            <path d="M851.43,70.95C870.894,70.95 886.91,86.966 886.91,106.43L851.43,70.95C851.43,90.414 867.446,106.43 886.91,106.43" style="fill:rgb(237,242,253);fill-rule:nonzero;"/>
            <path d="M886.91,106.43C886.91,86.966 902.926,70.95 922.39,70.95L886.91,106.43C906.374,106.43 922.39,90.414 922.39,70.95" style="fill:rgb(209,218,240);fill-rule:nonzero;"/>
            <path d="M851.43,106.43C870.894,106.43 886.91,122.446 886.91,141.91L851.43,106.43C851.43,125.894 867.446,141.91 886.91,141.91" style="fill:rgb(220,237,254);fill-rule:nonzero;"/>
            <path d="M886.91,106.43C906.374,106.43 922.39,122.446 922.39,141.91L886.91,141.91L886.91,106.43" style="fill:rgb(237,242,253);fill-rule:nonzero;"/>
            <rect x="922.382" y="70.952" width="70.952" height="70.952" style="fill:white;"/>
            <path d="M922.38,106.43C922.38,86.966 938.396,70.95 957.86,70.95L922.38,106.43C941.844,106.43 957.86,90.414 957.86,70.95" style="fill:rgb(209,218,240);fill-rule:nonzero;"/>
            <path d="M922.38,141.91C922.38,122.446 938.396,106.43 957.86,106.43L957.86,141.91L922.38,141.91" style="fill:rgb(237,242,253);fill-rule:nonzero;"/>
            <rect x="0" y="141.905" width="70.952" height="70.952" style="fill:white;"/>
            <path d="M0,177.38C-0,157.916 16.016,141.9 35.48,141.9L35.48,177.38L0,177.38" style="fill:rgb(220,237,254);fill-rule:nonzero;"/>
            <path d="M35.48,141.9C54.944,141.9 70.96,157.916 70.96,177.38L35.48,141.9C35.48,161.364 51.496,177.38 70.96,177.38" style="fill:rgb(220,237,254);fill-rule:nonzero;"/>
            <path d="M0,212.86C-0,193.396 16.016,177.38 35.48,177.38L0,212.86C19.464,212.86 35.48,196.844 35.48,177.38" style="fill:rgb(237,242,253);fill-rule:nonzero;"/>
            <path d="M35.48,212.86C54.944,212.86 70.96,196.844 70.96,177.38L35.48,177.38L35.48,212.86" style="fill:rgb(220,237,254);fill-rule:nonzero;"/>
            <rect x="70.952" y="141.905" width="70.952" height="70.952" style="fill:white;"/>
            <path d="M70.95,141.9C90.414,141.9 106.43,157.916 106.43,177.38L70.95,177.38L70.95,141.9" style="fill:rgb(209,218,240);fill-rule:nonzero;"/>
            <path d="M106.43,177.38C125.894,177.38 141.91,161.364 141.91,141.9L106.43,141.9L106.43,177.38" style="fill:rgb(209,218,240);fill-rule:nonzero;"/>
            <path d="M70.95,177.38C90.414,177.38 106.43,193.396 106.43,212.86L70.95,212.86L70.95,177.38" style="fill:rgb(220,237,254);fill-rule:nonzero;"/>
            <path d="M106.43,177.38C125.894,177.38 141.91,193.396 141.91,212.86L106.43,212.86L106.43,177.38" style="fill:rgb(209,218,240);fill-rule:nonzero;"/>
            <rect x="141.905" y="141.905" width="70.952" height="70.952" style="fill:white;"/>
            <path d="M141.9,177.38C141.9,157.916 157.916,141.9 177.38,141.9L141.9,177.38C161.364,177.38 177.38,161.364 177.38,141.9" style="fill:rgb(220,237,254);fill-rule:nonzero;"/>
            <path d="M177.38,177.38C196.844,177.38 212.86,161.364 212.86,141.9L177.38,141.9L177.38,177.38" style="fill:rgb(220,237,254);fill-rule:nonzero;"/>
            <path d="M141.9,212.86C141.9,193.396 157.916,177.38 177.38,177.38L141.9,212.86C161.364,212.86 177.38,196.844 177.38,177.38" style="fill:rgb(237,242,253);fill-rule:nonzero;"/>
            <path d="M177.38,212.86C177.38,193.396 193.396,177.38 212.86,177.38L212.86,212.86L177.38,212.86" style="fill:rgb(209,218,240);fill-rule:nonzero;"/>
            <rect x="212.857" y="141.905" width="70.952" height="70.952" style="fill:white;"/>
            <path d="M212.86,177.38C212.86,157.916 228.876,141.9 248.34,141.9L248.34,177.38L212.86,177.38" style="fill:rgb(220,237,254);fill-rule:nonzero;"/>
            <path d="M248.33,177.38C248.33,157.916 264.346,141.9 283.81,141.9L248.33,177.38C267.794,177.38 283.81,161.364 283.81,141.9" style="fill:rgb(237,242,253);fill-rule:nonzero;"/>
            <path d="M212.86,212.86C212.86,193.396 228.876,177.38 248.34,177.38L248.34,212.86L212.86,212.86" style="fill:rgb(220,237,254);fill-rule:nonzero;"/>
            <path d="M248.33,177.38C267.794,177.38 283.81,193.396 283.81,212.86L248.33,212.86L248.33,177.38" style="fill:rgb(220,237,254);fill-rule:nonzero;"/>
            <rect x="283.81" y="141.905" width="70.952" height="70.952" style="fill:white;"/>
            <path d="M283.81,177.38C303.274,177.38 319.29,161.364 319.29,141.9L283.81,141.9L283.81,177.38" style="fill:rgb(220,237,254);fill-rule:nonzero;"/>
            <path d="M319.29,177.38C319.29,157.916 335.306,141.9 354.77,141.9L354.77,177.38L319.29,177.38" style="fill:rgb(209,218,240);fill-rule:nonzero;"/>
            <path d="M283.81,177.38C303.274,177.38 319.29,193.396 319.29,212.86L283.81,212.86L283.81,177.38" style="fill:rgb(237,242,253);fill-rule:nonzero;"/>
            <path d="M319.29,212.86C319.29,193.396 335.306,177.38 354.77,177.38L319.29,212.86C338.754,212.86 354.77,196.844 354.77,177.38" style="fill:rgb(209,218,240);fill-rule:nonzero;"/>
            <rect x="354.762" y="141.905" width="70.952" height="70.952" style="fill:white;"/>
            <path d="M354.76,177.38C374.224,177.38 390.24,161.364 390.24,141.9L354.76,141.9L354.76,177.38" style="fill:rgb(209,218,240);fill-rule:nonzero;"/>
            <path d="M390.24,177.38C409.704,177.38 425.72,161.364 425.72,141.9L390.24,141.9L390.24,177.38" style="fill:rgb(220,237,254);fill-rule:nonzero;"/>
            <path d="M354.76,177.38C354.76,196.844 370.776,212.86 390.24,212.86L390.24,177.38L354.76,177.38" style="fill:rgb(237,242,253);fill-rule:nonzero;"/>
            <path d="M390.24,212.86C409.704,212.86 425.72,196.844 425.72,177.38L390.24,177.38L390.24,212.86" style="fill:rgb(237,242,253);fill-rule:nonzero;"/>
            <rect x="425.715" y="141.905" width="70.952" height="70.952" style="fill:white;"/>
            <path d="M425.71,141.9C425.71,161.364 441.726,177.38 461.19,177.38L461.19,141.9L425.71,141.9" style="fill:rgb(220,237,254);fill-rule:nonzero;"/>
            <path d="M461.19,177.38C480.654,177.38 496.67,161.364 496.67,141.9L461.19,141.9L461.19,177.38" style="fill:rgb(220,237,254);fill-rule:nonzero;"/>
            <path d="M425.71,212.86C445.174,212.86 461.19,196.844 461.19,177.38L425.71,177.38L425.71,212.86" style="fill:rgb(220,237,254);fill-rule:nonzero;"/>
            <path d="M461.19,212.86C480.654,212.86 496.67,196.844 496.67,177.38L461.19,177.38L461.19,212.86" style="fill:rgb(209,218,240);fill-rule:nonzero;"/>
            <rect x="496.667" y="141.905" width="70.952" height="70.952" style="fill:white;"/>
            <path d="M496.67,177.38C496.67,157.916 512.686,141.9 532.15,141.9L532.15,177.38L496.67,177.38" style="fill:rgb(209,218,240);fill-rule:nonzero;"/>
            <path d="M532.14,177.38C551.604,177.38 567.62,161.364 567.62,141.9L532.14,141.9L532.14,177.38" style="fill:rgb(237,242,253);fill-rule:nonzero;"/>
            <path d="M496.67,177.38C496.67,196.844 512.686,212.86 532.15,212.86L532.15,177.38L496.67,177.38" style="fill:rgb(209,218,240);fill-rule:nonzero;"/>
            <path d="M532.14,177.38C551.604,177.38 567.62,193.396 567.62,212.86L532.14,177.38C532.14,196.844 548.156,212.86 567.62,212.86" style="fill:rgb(209,218,240);fill-rule:nonzero;"/>
            <rect x="567.619" y="141.905" width="70.952" height="70.952" style="fill:white;"/>
            <path d="M567.62,177.38C567.62,157.916 583.636,141.9 603.1,141.9L603.1,177.38L567.62,177.38" style="fill:rgb(237,242,253);fill-rule:nonzero;"/>
            <path d="M603.1,177.38C622.564,177.38 638.58,161.364 638.58,141.9L603.1,141.9L603.1,177.38" style="fill:rgb(209,218,240);fill-rule:nonzero;"/>
            <path d="M567.62,177.38C567.62,196.844 583.636,212.86 603.1,212.86L603.1,177.38L567.62,177.38" style="fill:rgb(220,237,254);fill-rule:nonzero;"/>
            <path d="M603.1,212.86C603.1,193.396 619.116,177.38 638.58,177.38L603.1,212.86C622.564,212.86 638.58,196.844 638.58,177.38" style="fill:rgb(237,242,253);fill-rule:nonzero;"/>
            <rect x="638.572" y="141.905" width="70.952" height="70.952" style="fill:white;"/>
            <path d="M638.57,141.9C638.57,161.364 654.586,177.38 674.05,177.38L674.05,141.9L638.57,141.9" style="fill:rgb(209,218,240);fill-rule:nonzero;"/>
            <path d="M674.05,177.38C674.05,157.916 690.066,141.9 709.53,141.9L674.05,177.38C693.514,177.38 709.53,161.364 709.53,141.9" style="fill:rgb(209,218,240);fill-rule:nonzero;"/>
            <path d="M638.57,177.38C658.034,177.38 674.05,193.396 674.05,212.86L638.57,212.86L638.57,177.38" style="fill:rgb(209,218,240);fill-rule:nonzero;"/>
            <path d="M674.05,212.86C674.05,193.396 690.066,177.38 709.53,177.38L709.53,212.86L674.05,212.86" style="fill:rgb(220,237,254);fill-rule:nonzero;"/>
            <rect x="709.524" y="141.905" width="70.952" height="70.952" style="fill:white;"/>
            <path d="M709.52,177.38C728.984,177.38 745,161.364 745,141.9L709.52,141.9L709.52,177.38" style="fill:rgb(237,242,253);fill-rule:nonzero;"/>
            <path d="M745,141.9C764.464,141.9 780.48,157.916 780.48,177.38L745,177.38L745,141.9" style="fill:rgb(237,242,253);fill-rule:nonzero;"/>
            <path d="M709.52,212.86C709.52,193.396 725.536,177.38 745,177.38L745,212.86L709.52,212.86" style="fill:rgb(209,218,240);fill-rule:nonzero;"/>
            <path d="M745,177.38C764.464,177.38 780.48,193.396 780.48,212.86L745,177.38C745,196.844 761.016,212.86 780.48,212.86" style="fill:rgb(209,218,240);fill-rule:nonzero;"/>
            <rect x="780.477" y="141.905" width="70.952" height="70.952" style="fill:white;"/>
            <path d="M780.48,177.38C780.48,157.916 796.496,141.9 815.96,141.9L815.96,177.38L780.48,177.38" style="fill:rgb(237,242,253);fill-rule:nonzero;"/>
            <path d="M815.95,141.9C815.95,161.364 831.966,177.38 851.43,177.38L851.43,141.9L815.95,141.9" style="fill:rgb(220,237,254);fill-rule:nonzero;"/>
            <path d="M780.48,177.38C780.48,196.844 796.496,212.86 815.96,212.86L815.96,177.38L780.48,177.38" style="fill:rgb(237,242,253);fill-rule:nonzero;"/>
            <path d="M815.95,177.38C815.95,196.844 831.966,212.86 851.43,212.86L851.43,177.38L815.95,177.38" style="fill:rgb(220,237,254);fill-rule:nonzero;"/>
            <rect x="851.429" y="141.905" width="70.952" height="70.952" style="fill:white;"/>
            <path d="M851.43,141.9C870.894,141.9 886.91,157.916 886.91,177.38L851.43,177.38L851.43,141.9" style="fill:rgb(237,242,253);fill-rule:nonzero;"/>
            <path d="M886.91,141.9C886.91,161.364 902.926,177.38 922.39,177.38L922.39,141.9L886.91,141.9" style="fill:rgb(220,237,254);fill-rule:nonzero;"/>
            <path d="M851.43,212.86C851.43,193.396 867.446,177.38 886.91,177.38L851.43,212.86C870.894,212.86 886.91,196.844 886.91,177.38" style="fill:rgb(237,242,253);fill-rule:nonzero;"/>
            <path d="M886.91,212.86C886.91,193.396 902.926,177.38 922.39,177.38L886.91,212.86C906.374,212.86 922.39,196.844 922.39,177.38" style="fill:rgb(237,242,253);fill-rule:nonzero;"/>
            <rect x="922.382" y="141.905" width="70.952" height="70.952" style="fill:white;"/>
            <path d="M922.38,177.38C941.844,177.38 957.86,161.364 957.86,141.9L922.38,141.9L922.38,177.38" style="fill:rgb(220,237,254);fill-rule:nonzero;"/>
            <path d="M922.38,177.38C941.844,177.38 957.86,193.396 957.86,212.86L922.38,212.86L922.38,177.38" style="fill:rgb(220,237,254);fill-rule:nonzero;"/>
            <rect x="0" y="212.857" width="70.952" height="70.952" style="fill:white;"/>
            <path d="M0,248.34C-0,228.876 16.016,212.86 35.48,212.86L35.48,248.34L0,248.34" style="fill:rgb(220,237,254);fill-rule:nonzero;"/>
            <path d="M35.48,212.86C54.944,212.86 70.96,228.876 70.96,248.34L35.48,212.86C35.48,232.324 51.496,248.34 70.96,248.34" style="fill:rgb(237,242,253);fill-rule:nonzero;"/>
            <path d="M0,283.81C19.464,283.81 35.48,267.794 35.48,248.33L0,248.33L0,283.81" style="fill:rgb(237,242,253);fill-rule:nonzero;"/>
            <path d="M35.48,283.81C35.48,264.346 51.496,248.33 70.96,248.33L35.48,283.81C54.944,283.81 70.96,267.794 70.96,248.33" style="fill:rgb(220,237,254);fill-rule:nonzero;"/>
            <rect x="70.952" y="212.857" width="70.952" height="70.952" style="fill:white;"/>
            <path d="M70.95,212.86C70.95,232.324 86.966,248.34 106.43,248.34L106.43,212.86L70.95,212.86" style="fill:rgb(209,218,240);fill-rule:nonzero;"/>
            <path d="M106.43,212.86C125.894,212.86 141.91,228.876 141.91,248.34L106.43,248.34L106.43,212.86" style="fill:rgb(209,218,240);fill-rule:nonzero;"/>
            <path d="M70.95,248.33C70.95,267.794 86.966,283.81 106.43,283.81L106.43,248.33L70.95,248.33" style="fill:rgb(220,237,254);fill-rule:nonzero;"/>
            <path d="M106.43,283.81C106.43,264.346 122.446,248.33 141.91,248.33L141.91,283.81L106.43,283.81" style="fill:rgb(220,237,254);fill-rule:nonzero;"/>
            <rect x="141.905" y="212.857" width="70.952" height="70.952" style="fill:white;"/>
            <path d="M141.9,248.34C141.9,228.876 157.916,212.86 177.38,212.86L177.38,248.34L141.9,248.34" style="fill:rgb(220,237,254);fill-rule:nonzero;"/>
            <path d="M177.38,212.86C196.844,212.86 212.86,228.876 212.86,248.34L177.38,248.34L177.38,212.86" style="fill:rgb(209,218,240);fill-rule:nonzero;"/>
            <path d="M141.9,248.33C161.364,248.33 177.38,264.346 177.38,283.81L141.9,283.81L141.9,248.33" style="fill:rgb(209,218,240);fill-rule:nonzero;"/>
            <path d="M177.38,283.81C177.38,264.346 193.396,248.33 212.86,248.33L212.86,283.81L177.38,283.81" style="fill:rgb(209,218,240);fill-rule:nonzero;"/>
            <rect x="212.857" y="212.857" width="70.952" height="70.952" style="fill:white;"/>
            <path d="M212.86,212.86C232.324,212.86 248.34,228.876 248.34,248.34L212.86,248.34L212.86,212.86" style="fill:rgb(220,237,254);fill-rule:nonzero;"/>
            <path d="M248.33,212.86C267.794,212.86 283.81,228.876 283.81,248.34L248.33,212.86C248.33,232.324 264.346,248.34 283.81,248.34" style="fill:rgb(237,242,253);fill-rule:nonzero;"/>
            <path d="M212.86,248.33C232.324,248.33 248.34,264.346 248.34,283.81L212.86,248.33C212.86,267.794 228.876,283.81 248.34,283.81" style="fill:rgb(220,237,254);fill-rule:nonzero;"/>
            <path d="M248.33,248.33C248.33,267.794 264.346,283.81 283.81,283.81L283.81,248.33L248.33,248.33" style="fill:rgb(220,237,254);fill-rule:nonzero;"/>
            <rect x="283.81" y="212.857" width="70.952" height="70.952" style="fill:white;"/>
            <path d="M283.81,248.34C283.81,228.876 299.826,212.86 319.29,212.86L283.81,248.34C303.274,248.34 319.29,232.324 319.29,212.86" style="fill:rgb(209,218,240);fill-rule:nonzero;"/>
            <path d="M319.29,212.86C319.29,232.324 335.306,248.34 354.77,248.34L354.77,212.86L319.29,212.86" style="fill:rgb(237,242,253);fill-rule:nonzero;"/>
            <path d="M283.81,283.81C283.81,264.346 299.826,248.33 319.29,248.33L319.29,283.81L283.81,283.81" style="fill:rgb(220,237,254);fill-rule:nonzero;"/>
            <path d="M319.29,248.33C338.754,248.33 354.77,264.346 354.77,283.81L319.29,283.81L319.29,248.33" style="fill:rgb(209,218,240);fill-rule:nonzero;"/>
            <rect x="354.762" y="212.857" width="70.952" height="70.952" style="fill:white;"/>
            <path d="M354.76,248.34C354.76,228.876 370.776,212.86 390.24,212.86L390.24,248.34L354.76,248.34" style="fill:rgb(237,242,253);fill-rule:nonzero;"/>
            <path d="M390.24,248.34C390.24,228.876 406.256,212.86 425.72,212.86L425.72,248.34L390.24,248.34" style="fill:rgb(237,242,253);fill-rule:nonzero;"/>
            <path d="M354.76,283.81C354.76,264.346 370.776,248.33 390.24,248.33L390.24,283.81L354.76,283.81" style="fill:rgb(209,218,240);fill-rule:nonzero;"/>
            <path d="M390.24,283.81C390.24,264.346 406.256,248.33 425.72,248.33L390.24,283.81C409.704,283.81 425.72,267.794 425.72,248.33" style="fill:rgb(237,242,253);fill-rule:nonzero;"/>
            <rect x="425.715" y="212.857" width="70.952" height="70.952" style="fill:white;"/>
            <path d="M425.71,248.34C445.174,248.34 461.19,232.324 461.19,212.86L425.71,212.86L425.71,248.34" style="fill:rgb(220,237,254);fill-rule:nonzero;"/>
            <path d="M461.19,212.86C480.654,212.86 496.67,228.876 496.67,248.34L461.19,212.86C461.19,232.324 477.206,248.34 496.67,248.34" style="fill:rgb(220,237,254);fill-rule:nonzero;"/>
            <path d="M425.71,283.81C425.71,264.346 441.726,248.33 461.19,248.33L425.71,283.81C445.174,283.81 461.19,267.794 461.19,248.33" style="fill:rgb(220,237,254);fill-rule:nonzero;"/>
            <path d="M461.19,248.33C480.654,248.33 496.67,264.346 496.67,283.81L461.19,248.33C461.19,267.794 477.206,283.81 496.67,283.81" style="fill:rgb(220,237,254);fill-rule:nonzero;"/>
            <rect x="496.667" y="212.857" width="70.952" height="70.952" style="fill:white;"/>
            <path d="M496.67,248.34C496.67,228.876 512.686,212.86 532.15,212.86L496.67,248.34C516.134,248.34 532.15,232.324 532.15,212.86" style="fill:rgb(220,237,254);fill-rule:nonzero;"/>
            <path d="M532.14,212.86C551.604,212.86 567.62,228.876 567.62,248.34L532.14,248.34L532.14,212.86" style="fill:rgb(209,218,240);fill-rule:nonzero;"/>
            <path d="M496.67,283.81C516.134,283.81 532.15,267.794 532.15,248.33L496.67,248.33L496.67,283.81" style="fill:rgb(237,242,253);fill-rule:nonzero;"/>
            <path d="M532.14,283.81C532.14,264.346 548.156,248.33 567.62,248.33L532.14,283.81C551.604,283.81 567.62,267.794 567.62,248.33" style="fill:rgb(237,242,253);fill-rule:nonzero;"/>
            <rect x="567.619" y="212.857" width="70.952" height="70.952" style="fill:white;"/>
            <path d="M567.62,248.34C587.084,248.34 603.1,232.324 603.1,212.86L567.62,212.86L567.62,248.34" style="fill:rgb(237,242,253);fill-rule:nonzero;"/>
            <path d="M603.1,212.86C622.564,212.86 638.58,228.876 638.58,248.34L603.1,248.34L603.1,212.86" style="fill:rgb(220,237,254);fill-rule:nonzero;"/>
            <path d="M567.62,248.33C567.62,267.794 583.636,283.81 603.1,283.81L603.1,248.33L567.62,248.33" style="fill:rgb(237,242,253);fill-rule:nonzero;"/>
            <path d="M603.1,248.33C622.564,248.33 638.58,264.346 638.58,283.81L603.1,248.33C603.1,267.794 619.116,283.81 638.58,283.81" style="fill:rgb(209,218,240);fill-rule:nonzero;"/>
            <rect x="638.572" y="212.857" width="70.952" height="70.952" style="fill:white;"/>
            <path d="M638.57,248.34C638.57,228.876 654.586,212.86 674.05,212.86L674.05,248.34L638.57,248.34" style="fill:rgb(237,242,253);fill-rule:nonzero;"/>
            <path d="M674.05,212.86C674.05,232.324 690.066,248.34 709.53,248.34L709.53,212.86L674.05,212.86" style="fill:rgb(237,242,253);fill-rule:nonzero;"/>
            <path d="M638.57,248.33C658.034,248.33 674.05,264.346 674.05,283.81L638.57,248.33C638.57,267.794 654.586,283.81 674.05,283.81" style="fill:rgb(220,237,254);fill-rule:nonzero;"/>
            <path d="M674.05,283.81C674.05,264.346 690.066,248.33 709.53,248.33L709.53,283.81L674.05,283.81" style="fill:rgb(220,237,254);fill-rule:nonzero;"/>
            <rect x="709.524" y="212.857" width="70.952" height="70.952" style="fill:white;"/>
            <path d="M709.52,248.34C728.984,248.34 745,232.324 745,212.86L709.52,212.86L709.52,248.34" style="fill:rgb(237,242,253);fill-rule:nonzero;"/>
            <path d="M745,248.34C745,228.876 761.016,212.86 780.48,212.86L745,248.34C764.464,248.34 780.48,232.324 780.48,212.86" style="fill:rgb(220,237,254);fill-rule:nonzero;"/>
            <path d="M709.52,283.81C709.52,264.346 725.536,248.33 745,248.33L745,283.81L709.52,283.81" style="fill:rgb(209,218,240);fill-rule:nonzero;"/>
            <path d="M745,283.81C745,264.346 761.016,248.33 780.48,248.33L780.48,283.81L745,283.81" style="fill:rgb(220,237,254);fill-rule:nonzero;"/>
            <rect x="780.477" y="212.857" width="70.952" height="70.952" style="fill:white;"/>
            <path d="M780.48,248.34C799.944,248.34 815.96,232.324 815.96,212.86L780.48,212.86L780.48,248.34" style="fill:rgb(220,237,254);fill-rule:nonzero;"/>
            <path d="M815.95,248.34C815.95,228.876 831.966,212.86 851.43,212.86L815.95,248.34C835.414,248.34 851.43,232.324 851.43,212.86" style="fill:rgb(237,242,253);fill-rule:nonzero;"/>
            <path d="M780.48,283.81C780.48,264.346 796.496,248.33 815.96,248.33L815.96,283.81L780.48,283.81" style="fill:rgb(220,237,254);fill-rule:nonzero;"/>
            <path d="M815.95,283.81C815.95,264.346 831.966,248.33 851.43,248.33L851.43,283.81L815.95,283.81" style="fill:rgb(209,218,240);fill-rule:nonzero;"/>
            <rect x="851.429" y="212.857" width="70.952" height="70.952" style="fill:white;"/>
            <path d="M851.43,248.34C851.43,228.876 867.446,212.86 886.91,212.86L851.43,248.34C870.894,248.34 886.91,232.324 886.91,212.86" style="fill:rgb(209,218,240);fill-rule:nonzero;"/>
            <path d="M886.91,212.86C906.374,212.86 922.39,228.876 922.39,248.34L886.91,248.34L886.91,212.86" style="fill:rgb(237,242,253);fill-rule:nonzero;"/>
            <path d="M851.43,283.81C851.43,264.346 867.446,248.33 886.91,248.33L886.91,283.81L851.43,283.81" style="fill:rgb(209,218,240);fill-rule:nonzero;"/>
            <path d="M886.91,248.33C906.374,248.33 922.39,264.346 922.39,283.81L886.91,283.81L886.91,248.33" style="fill:rgb(209,218,240);fill-rule:nonzero;"/>
            <rect x="922.382" y="212.857" width="70.952" height="70.952" style="fill:white;"/>
            <path d="M922.38,248.34C922.38,228.876 938.396,212.86 957.86,212.86L957.86,248.34L922.38,248.34" style="fill:rgb(209,218,240);fill-rule:nonzero;"/>
            <path d="M922.38,283.81C941.844,283.81 957.86,267.794 957.86,248.33L922.38,248.33L922.38,283.81" style="fill:rgb(220,237,254);fill-rule:nonzero;"/>
            <rect x="0" y="283.81" width="70.952" height="70.952" style="fill:white;"/>
            <path d="M0,319.29C19.464,319.29 35.48,303.274 35.48,283.81L0,283.81L0,319.29" style="fill:rgb(220,237,254);fill-rule:nonzero;"/>
            <path d="M35.48,319.29C54.944,319.29 70.96,303.274 70.96,283.81L35.48,283.81L35.48,319.29" style="fill:rgb(237,242,253);fill-rule:nonzero;"/>
            <path d="M0,319.29C-0,338.754 16.016,354.77 35.48,354.77L35.48,319.29L0,319.29" style="fill:rgb(237,242,253);fill-rule:nonzero;"/>
            <path d="M35.48,319.29C54.944,319.29 70.96,335.306 70.96,354.77L35.48,319.29C35.48,338.754 51.496,354.77 70.96,354.77" style="fill:rgb(209,218,240);fill-rule:nonzero;"/>
            <rect x="70.952" y="283.81" width="70.952" height="70.952" style="fill:white;"/>
            <path d="M70.95,283.81C70.95,303.274 86.966,319.29 106.43,319.29L106.43,283.81L70.95,283.81" style="fill:rgb(220,237,254);fill-rule:nonzero;"/>
            <path d="M106.43,283.81C125.894,283.81 141.91,299.826 141.91,319.29L106.43,319.29L106.43,283.81" style="fill:rgb(237,242,253);fill-rule:nonzero;"/>
            <path d="M70.95,354.77C70.95,335.306 86.966,319.29 106.43,319.29L106.43,354.77L70.95,354.77" style="fill:rgb(237,242,253);fill-rule:nonzero;"/>
            <path d="M106.43,354.77C106.43,335.306 122.446,319.29 141.91,319.29L141.91,354.77L106.43,354.77" style="fill:rgb(237,242,253);fill-rule:nonzero;"/>
            <rect x="141.905" y="283.81" width="70.952" height="70.952" style="fill:white;"/>
            <path d="M141.9,283.81C161.364,283.81 177.38,299.826 177.38,319.29L141.9,319.29L141.9,283.81" style="fill:rgb(209,218,240);fill-rule:nonzero;"/>
            <path d="M177.38,319.29C177.38,299.826 193.396,283.81 212.86,283.81L177.38,319.29C196.844,319.29 212.86,303.274 212.86,283.81" style="fill:rgb(220,237,254);fill-rule:nonzero;"/>
            <path d="M141.9,354.77C161.364,354.77 177.38,338.754 177.38,319.29L141.9,319.29L141.9,354.77" style="fill:rgb(209,218,240);fill-rule:nonzero;"/>
            <path d="M177.38,319.29C196.844,319.29 212.86,335.306 212.86,354.77L177.38,354.77L177.38,319.29" style="fill:rgb(237,242,253);fill-rule:nonzero;"/>
            <rect x="212.857" y="283.81" width="70.952" height="70.952" style="fill:white;"/>
            <path d="M212.86,319.29C212.86,299.826 228.876,283.81 248.34,283.81L248.34,319.29L212.86,319.29" style="fill:rgb(220,237,254);fill-rule:nonzero;"/>
            <path d="M248.33,283.81C248.33,303.274 264.346,319.29 283.81,319.29L283.81,283.81L248.33,283.81" style="fill:rgb(220,237,254);fill-rule:nonzero;"/>
            <path d="M212.86,354.77C212.86,335.306 228.876,319.29 248.34,319.29L248.34,354.77L212.86,354.77" style="fill:rgb(209,218,240);fill-rule:nonzero;"/>
            <path d="M248.33,319.29C248.33,338.754 264.346,354.77 283.81,354.77L283.81,319.29L248.33,319.29" style="fill:rgb(237,242,253);fill-rule:nonzero;"/>
            <rect x="283.81" y="283.81" width="70.952" height="70.952" style="fill:white;"/>
            <path d="M283.81,319.29C283.81,299.826 299.826,283.81 319.29,283.81L319.29,319.29L283.81,319.29" style="fill:rgb(237,242,253);fill-rule:nonzero;"/>
            <path d="M319.29,319.29C319.29,299.826 335.306,283.81 354.77,283.81L354.77,319.29L319.29,319.29" style="fill:rgb(220,237,254);fill-rule:nonzero;"/>
            <path d="M283.81,319.29C303.274,319.29 319.29,335.306 319.29,354.77L283.81,354.77L283.81,319.29" style="fill:rgb(237,242,253);fill-rule:nonzero;"/>
            <path d="M319.29,354.77C319.29,335.306 335.306,319.29 354.77,319.29L319.29,354.77C338.754,354.77 354.77,338.754 354.77,319.29" style="fill:rgb(237,242,253);fill-rule:nonzero;"/>
            <rect x="354.762" y="283.81" width="70.952" height="70.952" style="fill:white;"/>
            <path d="M354.76,283.81C374.224,283.81 390.24,299.826 390.24,319.29L354.76,283.81C354.76,303.274 370.776,319.29 390.24,319.29" style="fill:rgb(237,242,253);fill-rule:nonzero;"/>
            <path d="M390.24,319.29C409.704,319.29 425.72,303.274 425.72,283.81L390.24,283.81L390.24,319.29" style="fill:rgb(209,218,240);fill-rule:nonzero;"/>
            <path d="M354.76,354.77C354.76,335.306 370.776,319.29 390.24,319.29L354.76,354.77C374.224,354.77 390.24,338.754 390.24,319.29" style="fill:rgb(209,218,240);fill-rule:nonzero;"/>
            <path d="M390.24,319.29C390.24,338.754 406.256,354.77 425.72,354.77L425.72,319.29L390.24,319.29" style="fill:rgb(220,237,254);fill-rule:nonzero;"/>
            <rect x="425.715" y="283.81" width="70.952" height="70.952" style="fill:white;"/>
            <path d="M425.71,283.81C445.174,283.81 461.19,299.826 461.19,319.29L425.71,319.29L425.71,283.81" style="fill:rgb(220,237,254);fill-rule:nonzero;"/>
            <path d="M461.19,319.29C461.19,299.826 477.206,283.81 496.67,283.81L496.67,319.29L461.19,319.29" style="fill:rgb(220,237,254);fill-rule:nonzero;"/>
            <path d="M425.71,319.29C445.174,319.29 461.19,335.306 461.19,354.77L425.71,319.29C425.71,338.754 441.726,354.77 461.19,354.77" style="fill:rgb(237,242,253);fill-rule:nonzero;"/>
            <path d="M461.19,354.77C461.19,335.306 477.206,319.29 496.67,319.29L496.67,354.77L461.19,354.77" style="fill:rgb(237,242,253);fill-rule:nonzero;"/>
            <rect x="496.667" y="283.81" width="70.952" height="70.952" style="fill:white;"/>
            <path d="M496.67,283.81C516.134,283.81 532.15,299.826 532.15,319.29L496.67,283.81C496.67,303.274 512.686,319.29 532.15,319.29" style="fill:rgb(237,242,253);fill-rule:nonzero;"/>
            <path d="M532.14,319.29C532.14,299.826 548.156,283.81 567.62,283.81L567.62,319.29L532.14,319.29" style="fill:rgb(220,237,254);fill-rule:nonzero;"/>
            <path d="M496.67,354.77C516.134,354.77 532.15,338.754 532.15,319.29L496.67,319.29L496.67,354.77" style="fill:rgb(220,237,254);fill-rule:nonzero;"/>
            <path d="M532.14,354.77C532.14,335.306 548.156,319.29 567.62,319.29L567.62,354.77L532.14,354.77" style="fill:rgb(220,237,254);fill-rule:nonzero;"/>
            <rect x="567.619" y="283.81" width="70.952" height="70.952" style="fill:white;"/>
            <path d="M567.62,319.29C567.62,299.826 583.636,283.81 603.1,283.81L603.1,319.29L567.62,319.29" style="fill:rgb(209,218,240);fill-rule:nonzero;"/>
            <path d="M603.1,319.29C603.1,299.826 619.116,283.81 638.58,283.81L638.58,319.29L603.1,319.29" style="fill:rgb(220,237,254);fill-rule:nonzero;"/>
            <path d="M567.62,319.29C587.084,319.29 603.1,335.306 603.1,354.77L567.62,319.29C567.62,338.754 583.636,354.77 603.1,354.77" style="fill:rgb(220,237,254);fill-rule:nonzero;"/>
            <path d="M603.1,319.29C603.1,338.754 619.116,354.77 638.58,354.77L638.58,319.29L603.1,319.29" style="fill:rgb(209,218,240);fill-rule:nonzero;"/>
            <rect x="638.572" y="283.81" width="70.952" height="70.952" style="fill:white;"/>
            <path d="M638.57,319.29C638.57,299.826 654.586,283.81 674.05,283.81L674.05,319.29L638.57,319.29" style="fill:rgb(237,242,253);fill-rule:nonzero;"/>
            <path d="M674.05,283.81C693.514,283.81 709.53,299.826 709.53,319.29L674.05,283.81C674.05,303.274 690.066,319.29 709.53,319.29" style="fill:rgb(237,242,253);fill-rule:nonzero;"/>
            <path d="M638.57,319.29C658.034,319.29 674.05,335.306 674.05,354.77L638.57,354.77L638.57,319.29" style="fill:rgb(237,242,253);fill-rule:nonzero;"/>
            <path d="M674.05,319.29C693.514,319.29 709.53,335.306 709.53,354.77L674.05,354.77L674.05,319.29" style="fill:rgb(209,218,240);fill-rule:nonzero;"/>
            <rect x="709.524" y="283.81" width="70.952" height="70.952" style="fill:white;"/>
            <path d="M709.52,283.81C709.52,303.274 725.536,319.29 745,319.29L745,283.81L709.52,283.81" style="fill:rgb(237,242,253);fill-rule:nonzero;"/>
            <path d="M745,283.81C764.464,283.81 780.48,299.826 780.48,319.29L745,283.81C745,303.274 761.016,319.29 780.48,319.29" style="fill:rgb(237,242,253);fill-rule:nonzero;"/>
            <path d="M709.52,319.29C728.984,319.29 745,335.306 745,354.77L709.52,319.29C709.52,338.754 725.536,354.77 745,354.77" style="fill:rgb(220,237,254);fill-rule:nonzero;"/>
            <path d="M745,319.29C745,338.754 761.016,354.77 780.48,354.77L780.48,319.29L745,319.29" style="fill:rgb(237,242,253);fill-rule:nonzero;"/>
            <rect x="780.477" y="283.81" width="70.952" height="70.952" style="fill:white;"/>
            <path d="M780.48,283.81C780.48,303.274 796.496,319.29 815.96,319.29L815.96,283.81L780.48,283.81" style="fill:rgb(237,242,253);fill-rule:nonzero;"/>
            <path d="M815.95,283.81C835.414,283.81 851.43,299.826 851.43,319.29L815.95,319.29L815.95,283.81" style="fill:rgb(220,237,254);fill-rule:nonzero;"/>
            <path d="M780.48,354.77C799.944,354.77 815.96,338.754 815.96,319.29L780.48,319.29L780.48,354.77" style="fill:rgb(237,242,253);fill-rule:nonzero;"/>
            <path d="M815.95,354.77C815.95,335.306 831.966,319.29 851.43,319.29L815.95,354.77C835.414,354.77 851.43,338.754 851.43,319.29" style="fill:rgb(220,237,254);fill-rule:nonzero;"/>
            <rect x="851.429" y="283.81" width="70.952" height="70.952" style="fill:white;"/>
            <path d="M851.43,283.81C870.894,283.81 886.91,299.826 886.91,319.29L851.43,283.81C851.43,303.274 867.446,319.29 886.91,319.29" style="fill:rgb(220,237,254);fill-rule:nonzero;"/>
            <path d="M886.91,319.29C886.91,299.826 902.926,283.81 922.39,283.81L886.91,319.29C906.374,319.29 922.39,303.274 922.39,283.81" style="fill:rgb(209,218,240);fill-rule:nonzero;"/>
            <path d="M851.43,354.77C851.43,335.306 867.446,319.29 886.91,319.29L886.91,354.77L851.43,354.77" style="fill:rgb(237,242,253);fill-rule:nonzero;"/>
            <path d="M886.91,354.77C886.91,335.306 902.926,319.29 922.39,319.29L922.39,354.77L886.91,354.77" style="fill:rgb(237,242,253);fill-rule:nonzero;"/>
            <rect x="922.382" y="283.81" width="70.952" height="70.952" style="fill:white;"/>
            <path d="M922.38,283.81C941.844,283.81 957.86,299.826 957.86,319.29L922.38,319.29L922.38,283.81" style="fill:rgb(220,237,254);fill-rule:nonzero;"/>
            <path d="M922.38,354.77C922.38,335.306 938.396,319.29 957.86,319.29L922.38,354.77C941.844,354.77 957.86,338.754 957.86,319.29" style="fill:rgb(209,218,240);fill-rule:nonzero;"/>
            <rect x="0" y="354.762" width="70.952" height="70.952" style="fill:white;"/>
            <path d="M0,354.76C19.464,354.76 35.48,370.776 35.48,390.24L0,390.24L0,354.76" style="fill:rgb(237,242,253);fill-rule:nonzero;"/>
            <path d="M35.48,354.76C54.944,354.76 70.96,370.776 70.96,390.24L35.48,390.24L35.48,354.76" style="fill:rgb(209,218,240);fill-rule:nonzero;"/>
            <path d="M0,425.72C-0,406.256 16.016,390.24 35.48,390.24L35.48,425.72L0,425.72" style="fill:rgb(209,218,240);fill-rule:nonzero;"/>
            <path d="M35.48,390.24C54.944,390.24 70.96,406.256 70.96,425.72L35.48,425.72L35.48,390.24" style="fill:rgb(220,237,254);fill-rule:nonzero;"/>
            <rect x="70.952" y="354.762" width="70.952" height="70.952" style="fill:white;"/>
            <path d="M70.95,354.76C90.414,354.76 106.43,370.776 106.43,390.24L70.95,390.24L70.95,354.76" style="fill:rgb(209,218,240);fill-rule:nonzero;"/>
            <path d="M106.43,354.76C125.894,354.76 141.91,370.776 141.91,390.24L106.43,390.24L106.43,354.76" style="fill:rgb(237,242,253);fill-rule:nonzero;"/>
            <path d="M70.95,390.24C90.414,390.24 106.43,406.256 106.43,425.72L70.95,390.24C70.95,409.704 86.966,425.72 106.43,425.72" style="fill:rgb(220,237,254);fill-rule:nonzero;"/>
            <path d="M106.43,425.72C106.43,406.256 122.446,390.24 141.91,390.24L141.91,425.72L106.43,425.72" style="fill:rgb(220,237,254);fill-rule:nonzero;"/>
            <rect x="141.905" y="354.762" width="70.952" height="70.952" style="fill:white;"/>
            <path d="M141.9,390.24C141.9,370.776 157.916,354.76 177.38,354.76L141.9,390.24C161.364,390.24 177.38,374.224 177.38,354.76" style="fill:rgb(237,242,253);fill-rule:nonzero;"/>
            <path d="M177.38,354.76C177.38,374.224 193.396,390.24 212.86,390.24L212.86,354.76L177.38,354.76" style="fill:rgb(220,237,254);fill-rule:nonzero;"/>
            <path d="M141.9,425.72C141.9,406.256 157.916,390.24 177.38,390.24L177.38,425.72L141.9,425.72" style="fill:rgb(220,237,254);fill-rule:nonzero;"/>
            <path d="M177.38,390.24C196.844,390.24 212.86,406.256 212.86,425.72L177.38,425.72L177.38,390.24" style="fill:rgb(237,242,253);fill-rule:nonzero;"/>
            <rect x="212.857" y="354.762" width="70.952" height="70.952" style="fill:white;"/>
            <path d="M212.86,354.76C232.324,354.76 248.34,370.776 248.34,390.24L212.86,354.76C212.86,374.224 228.876,390.24 248.34,390.24" style="fill:rgb(220,237,254);fill-rule:nonzero;"/>
            <path d="M248.33,390.24C248.33,370.776 264.346,354.76 283.81,354.76L283.81,390.24L248.33,390.24" style="fill:rgb(209,218,240);fill-rule:nonzero;"/>
            <path d="M212.86,390.24C232.324,390.24 248.34,406.256 248.34,425.72L212.86,390.24C212.86,409.704 228.876,425.72 248.34,425.72" style="fill:rgb(237,242,253);fill-rule:nonzero;"/>
            <path d="M248.33,425.72C248.33,406.256 264.346,390.24 283.81,390.24L283.81,425.72L248.33,425.72" style="fill:rgb(209,218,240);fill-rule:nonzero;"/>
            <rect x="283.81" y="354.762" width="70.952" height="70.952" style="fill:white;"/>
            <path d="M283.81,390.24C283.81,370.776 299.826,354.76 319.29,354.76L283.81,390.24C303.274,390.24 319.29,374.224 319.29,354.76" style="fill:rgb(209,218,240);fill-rule:nonzero;"/>
            <path d="M319.29,390.24C319.29,370.776 335.306,354.76 354.77,354.76L354.77,390.24L319.29,390.24" style="fill:rgb(237,242,253);fill-rule:nonzero;"/>
            <path d="M283.81,425.72C283.81,406.256 299.826,390.24 319.29,390.24L319.29,425.72L283.81,425.72" style="fill:rgb(209,218,240);fill-rule:nonzero;"/>
            <path d="M319.29,425.72C319.29,406.256 335.306,390.24 354.77,390.24L319.29,425.72C338.754,425.72 354.77,409.704 354.77,390.24" style="fill:rgb(209,218,240);fill-rule:nonzero;"/>
            <rect x="354.762" y="354.762" width="70.952" height="70.952" style="fill:white;"/>
            <path d="M354.76,390.24C354.76,370.776 370.776,354.76 390.24,354.76L354.76,390.24C374.224,390.24 390.24,374.224 390.24,354.76" style="fill:rgb(209,218,240);fill-rule:nonzero;"/>
            <path d="M390.24,390.24C409.704,390.24 425.72,374.224 425.72,354.76L390.24,354.76L390.24,390.24" style="fill:rgb(220,237,254);fill-rule:nonzero;"/>
            <path d="M354.76,390.24C374.224,390.24 390.24,406.256 390.24,425.72L354.76,425.72L354.76,390.24" style="fill:rgb(209,218,240);fill-rule:nonzero;"/>
            <path d="M390.24,425.72C409.704,425.72 425.72,409.704 425.72,390.24L390.24,390.24L390.24,425.72" style="fill:rgb(237,242,253);fill-rule:nonzero;"/>
            <rect x="425.715" y="354.762" width="70.952" height="70.952" style="fill:white;"/>
            <path d="M425.71,354.76C425.71,374.224 441.726,390.24 461.19,390.24L461.19,354.76L425.71,354.76" style="fill:rgb(237,242,253);fill-rule:nonzero;"/>
            <path d="M461.19,354.76C480.654,354.76 496.67,370.776 496.67,390.24L461.19,390.24L461.19,354.76" style="fill:rgb(209,218,240);fill-rule:nonzero;"/>
            <path d="M425.71,390.24C445.174,390.24 461.19,406.256 461.19,425.72L425.71,390.24C425.71,409.704 441.726,425.72 461.19,425.72" style="fill:rgb(237,242,253);fill-rule:nonzero;"/>
            <path d="M461.19,390.24C480.654,390.24 496.67,406.256 496.67,425.72L461.19,390.24C461.19,409.704 477.206,425.72 496.67,425.72" style="fill:rgb(220,237,254);fill-rule:nonzero;"/>
            <rect x="496.667" y="354.762" width="70.952" height="70.952" style="fill:white;"/>
            <path d="M496.67,354.76C496.67,374.224 512.686,390.24 532.15,390.24L532.15,354.76L496.67,354.76" style="fill:rgb(220,237,254);fill-rule:nonzero;"/>
            <path d="M532.14,390.24C532.14,370.776 548.156,354.76 567.62,354.76L532.14,390.24C551.604,390.24 567.62,374.224 567.62,354.76" style="fill:rgb(220,237,254);fill-rule:nonzero;"/>
            <path d="M496.67,425.72C496.67,406.256 512.686,390.24 532.15,390.24L532.15,425.72L496.67,425.72" style="fill:rgb(237,242,253);fill-rule:nonzero;"/>
            <path d="M532.14,390.24C551.604,390.24 567.62,406.256 567.62,425.72L532.14,425.72L532.14,390.24" style="fill:rgb(237,242,253);fill-rule:nonzero;"/>
            <rect x="567.619" y="354.762" width="70.952" height="70.952" style="fill:white;"/>
            <path d="M567.62,354.76C567.62,374.224 583.636,390.24 603.1,390.24L603.1,354.76L567.62,354.76" style="fill:rgb(237,242,253);fill-rule:nonzero;"/>
            <path d="M603.1,390.24C622.564,390.24 638.58,374.224 638.58,354.76L603.1,354.76L603.1,390.24" style="fill:rgb(237,242,253);fill-rule:nonzero;"/>
            <path d="M567.62,425.72C567.62,406.256 583.636,390.24 603.1,390.24L603.1,425.72L567.62,425.72" style="fill:rgb(220,237,254);fill-rule:nonzero;"/>
            <path d="M603.1,425.72C603.1,406.256 619.116,390.24 638.58,390.24L638.58,425.72L603.1,425.72" style="fill:rgb(209,218,240);fill-rule:nonzero;"/>
            <rect x="638.572" y="354.762" width="70.952" height="70.952" style="fill:white;"/>
            <path d="M638.57,354.76C658.034,354.76 674.05,370.776 674.05,390.24L638.57,354.76C638.57,374.224 654.586,390.24 674.05,390.24" style="fill:rgb(237,242,253);fill-rule:nonzero;"/>
            <path d="M674.05,354.76C674.05,374.224 690.066,390.24 709.53,390.24L709.53,354.76L674.05,354.76" style="fill:rgb(220,237,254);fill-rule:nonzero;"/>
            <path d="M638.57,425.72C638.57,406.256 654.586,390.24 674.05,390.24L638.57,425.72C658.034,425.72 674.05,409.704 674.05,390.24" style="fill:rgb(220,237,254);fill-rule:nonzero;"/>
            <path d="M674.05,425.72C693.514,425.72 709.53,409.704 709.53,390.24L674.05,390.24L674.05,425.72" style="fill:rgb(237,242,253);fill-rule:nonzero;"/>
            <rect x="709.524" y="354.762" width="70.952" height="70.952" style="fill:white;"/>
            <path d="M709.52,354.76C709.52,374.224 725.536,390.24 745,390.24L745,354.76L709.52,354.76" style="fill:rgb(237,242,253);fill-rule:nonzero;"/>
            <path d="M745,390.24C745,370.776 761.016,354.76 780.48,354.76L745,390.24C764.464,390.24 780.48,374.224 780.48,354.76" style="fill:rgb(237,242,253);fill-rule:nonzero;"/>
            <path d="M709.52,390.24C728.984,390.24 745,406.256 745,425.72L709.52,390.24C709.52,409.704 725.536,425.72 745,425.72" style="fill:rgb(220,237,254);fill-rule:nonzero;"/>
            <path d="M745,390.24C745,409.704 761.016,425.72 780.48,425.72L780.48,390.24L745,390.24" style="fill:rgb(237,242,253);fill-rule:nonzero;"/>
            <rect x="780.477" y="354.762" width="70.952" height="70.952" style="fill:white;"/>
            <path d="M780.48,390.24C780.48,370.776 796.496,354.76 815.96,354.76L780.48,390.24C799.944,390.24 815.96,374.224 815.96,354.76" style="fill:rgb(209,218,240);fill-rule:nonzero;"/>
            <path d="M815.95,354.76C815.95,374.224 831.966,390.24 851.43,390.24L851.43,354.76L815.95,354.76" style="fill:rgb(220,237,254);fill-rule:nonzero;"/>
            <path d="M780.48,390.24C799.944,390.24 815.96,406.256 815.96,425.72L780.48,390.24C780.48,409.704 796.496,425.72 815.96,425.72" style="fill:rgb(220,237,254);fill-rule:nonzero;"/>
            <path d="M815.95,390.24C815.95,409.704 831.966,425.72 851.43,425.72L851.43,390.24L815.95,390.24" style="fill:rgb(237,242,253);fill-rule:nonzero;"/>
            <rect x="851.429" y="354.762" width="70.952" height="70.952" style="fill:white;"/>
            <path d="M851.43,354.76C870.894,354.76 886.91,370.776 886.91,390.24L851.43,390.24L851.43,354.76" style="fill:rgb(220,237,254);fill-rule:nonzero;"/>
            <path d="M886.91,354.76C886.91,374.224 902.926,390.24 922.39,390.24L922.39,354.76L886.91,354.76" style="fill:rgb(220,237,254);fill-rule:nonzero;"/>
            <path d="M851.43,390.24C870.894,390.24 886.91,406.256 886.91,425.72L851.43,425.72L851.43,390.24" style="fill:rgb(220,237,254);fill-rule:nonzero;"/>
            <path d="M886.91,425.72C886.91,406.256 902.926,390.24 922.39,390.24L922.39,425.72L886.91,425.72" style="fill:rgb(209,218,240);fill-rule:nonzero;"/>
            <rect x="922.382" y="354.762" width="70.952" height="70.952" style="fill:white;"/>
            <path d="M922.38,354.76C941.844,354.76 957.86,370.776 957.86,390.24L922.38,354.76C922.38,374.224 938.396,390.24 957.86,390.24" style="fill:rgb(220,237,254);fill-rule:nonzero;"/>
            <path d="M922.38,425.72C922.38,406.256 938.396,390.24 957.86,390.24L957.86,425.72L922.38,425.72" style="fill:rgb(209,218,240);fill-rule:nonzero;"/>
            <rect x="0" y="425.715" width="70.952" height="70.952" style="fill:white;"/>
            <path d="M0,425.71C-0,445.174 16.016,461.19 35.48,461.19L35.48,425.71L0,425.71" style="fill:rgb(237,242,253);fill-rule:nonzero;"/>
            <path d="M35.48,425.71C54.944,425.71 70.96,441.726 70.96,461.19L35.48,461.19L35.48,425.71" style="fill:rgb(220,237,254);fill-rule:nonzero;"/>
            <path d="M0,496.67C-0,477.206 16.016,461.19 35.48,461.19L35.48,496.67L0,496.67" style="fill:rgb(220,237,254);fill-rule:nonzero;"/>
            <path d="M35.48,461.19C35.48,480.654 51.496,496.67 70.96,496.67L70.96,461.19L35.48,461.19" style="fill:rgb(220,237,254);fill-rule:nonzero;"/>
            <rect x="70.952" y="425.715" width="70.952" height="70.952" style="fill:white;"/>
            <path d="M70.95,461.19C70.95,441.726 86.966,425.71 106.43,425.71L70.95,461.19C90.414,461.19 106.43,445.174 106.43,425.71" style="fill:rgb(237,242,253);fill-rule:nonzero;"/>
            <path d="M106.43,461.19C106.43,441.726 122.446,425.71 141.91,425.71L141.91,461.19L106.43,461.19" style="fill:rgb(220,237,254);fill-rule:nonzero;"/>
            <path d="M70.95,461.19C90.414,461.19 106.43,477.206 106.43,496.67L70.95,496.67L70.95,461.19" style="fill:rgb(220,237,254);fill-rule:nonzero;"/>
            <path d="M106.43,461.19C125.894,461.19 141.91,477.206 141.91,496.67L106.43,496.67L106.43,461.19" style="fill:rgb(209,218,240);fill-rule:nonzero;"/>
            <rect x="141.905" y="425.715" width="70.952" height="70.952" style="fill:white;"/>
            <path d="M141.9,425.71C141.9,445.174 157.916,461.19 177.38,461.19L177.38,425.71L141.9,425.71" style="fill:rgb(209,218,240);fill-rule:nonzero;"/>
            <path d="M177.38,461.19C177.38,441.726 193.396,425.71 212.86,425.71L212.86,461.19L177.38,461.19" style="fill:rgb(220,237,254);fill-rule:nonzero;"/>
            <path d="M141.9,461.19C161.364,461.19 177.38,477.206 177.38,496.67L141.9,496.67L141.9,461.19" style="fill:rgb(237,242,253);fill-rule:nonzero;"/>
            <path d="M177.38,496.67C196.844,496.67 212.86,480.654 212.86,461.19L177.38,461.19L177.38,496.67" style="fill:rgb(237,242,253);fill-rule:nonzero;"/>
            <rect x="212.857" y="425.715" width="70.952" height="70.952" style="fill:white;"/>
            <path d="M212.86,461.19C212.86,441.726 228.876,425.71 248.34,425.71L212.86,461.19C232.324,461.19 248.34,445.174 248.34,425.71" style="fill:rgb(209,218,240);fill-rule:nonzero;"/>
            <path d="M248.33,425.71C248.33,445.174 264.346,461.19 283.81,461.19L283.81,425.71L248.33,425.71" style="fill:rgb(220,237,254);fill-rule:nonzero;"/>
            <path d="M212.86,496.67C232.324,496.67 248.34,480.654 248.34,461.19L212.86,461.19L212.86,496.67" style="fill:rgb(220,237,254);fill-rule:nonzero;"/>
            <path d="M248.33,496.67C267.794,496.67 283.81,480.654 283.81,461.19L248.33,461.19L248.33,496.67" style="fill:rgb(237,242,253);fill-rule:nonzero;"/>
            <rect x="283.81" y="425.715" width="70.952" height="70.952" style="fill:white;"/>
            <path d="M283.81,425.71C303.274,425.71 319.29,441.726 319.29,461.19L283.81,425.71C283.81,445.174 299.826,461.19 319.29,461.19" style="fill:rgb(220,237,254);fill-rule:nonzero;"/>
            <path d="M319.29,425.71C319.29,445.174 335.306,461.19 354.77,461.19L354.77,425.71L319.29,425.71" style="fill:rgb(220,237,254);fill-rule:nonzero;"/>
            <path d="M283.81,496.67C303.274,496.67 319.29,480.654 319.29,461.19L283.81,461.19L283.81,496.67" style="fill:rgb(220,237,254);fill-rule:nonzero;"/>
            <path d="M319.29,496.67C338.754,496.67 354.77,480.654 354.77,461.19L319.29,461.19L319.29,496.67" style="fill:rgb(237,242,253);fill-rule:nonzero;"/>
            <rect x="354.762" y="425.715" width="70.952" height="70.952" style="fill:white;"/>
            <path d="M354.76,461.19C354.76,441.726 370.776,425.71 390.24,425.71L390.24,461.19L354.76,461.19" style="fill:rgb(237,242,253);fill-rule:nonzero;"/>
            <path d="M390.24,425.71C409.704,425.71 425.72,441.726 425.72,461.19L390.24,425.71C390.24,445.174 406.256,461.19 425.72,461.19" style="fill:rgb(237,242,253);fill-rule:nonzero;"/>
            <path d="M354.76,496.67C354.76,477.206 370.776,461.19 390.24,461.19L390.24,496.67L354.76,496.67" style="fill:rgb(220,237,254);fill-rule:nonzero;"/>
            <path d="M390.24,461.19C409.704,461.19 425.72,477.206 425.72,496.67L390.24,496.67L390.24,461.19" style="fill:rgb(220,237,254);fill-rule:nonzero;"/>
            <rect x="425.715" y="425.715" width="70.952" height="70.952" style="fill:white;"/>
            <path d="M425.71,425.71C425.71,445.174 441.726,461.19 461.19,461.19L461.19,425.71L425.71,425.71" style="fill:rgb(209,218,240);fill-rule:nonzero;"/>
            <path d="M461.19,425.71C480.654,425.71 496.67,441.726 496.67,461.19L461.19,461.19L461.19,425.71" style="fill:rgb(237,242,253);fill-rule:nonzero;"/>
            <path d="M425.71,496.67C425.71,477.206 441.726,461.19 461.19,461.19L461.19,496.67L425.71,496.67" style="fill:rgb(220,237,254);fill-rule:nonzero;"/>
            <path d="M461.19,496.67C461.19,477.206 477.206,461.19 496.67,461.19L461.19,496.67C480.654,496.67 496.67,480.654 496.67,461.19" style="fill:rgb(237,242,253);fill-rule:nonzero;"/>
            <rect x="496.667" y="425.715" width="70.952" height="70.952" style="fill:white;"/>
            <path d="M496.67,461.19C496.67,441.726 512.686,425.71 532.15,425.71L496.67,461.19C516.134,461.19 532.15,445.174 532.15,425.71" style="fill:rgb(209,218,240);fill-rule:nonzero;"/>
            <path d="M532.14,461.19C532.14,441.726 548.156,425.71 567.62,425.71L532.14,461.19C551.604,461.19 567.62,445.174 567.62,425.71" style="fill:rgb(209,218,240);fill-rule:nonzero;"/>
            <path d="M496.67,461.19C516.134,461.19 532.15,477.206 532.15,496.67L496.67,461.19C496.67,480.654 512.686,496.67 532.15,496.67" style="fill:rgb(220,237,254);fill-rule:nonzero;"/>
            <path d="M532.14,461.19C532.14,480.654 548.156,496.67 567.62,496.67L567.62,461.19L532.14,461.19" style="fill:rgb(237,242,253);fill-rule:nonzero;"/>
            <rect x="567.619" y="425.715" width="70.952" height="70.952" style="fill:white;"/>
            <path d="M567.62,425.71C587.084,425.71 603.1,441.726 603.1,461.19L567.62,425.71C567.62,445.174 583.636,461.19 603.1,461.19" style="fill:rgb(220,237,254);fill-rule:nonzero;"/>
            <path d="M603.1,461.19C622.564,461.19 638.58,445.174 638.58,425.71L603.1,425.71L603.1,461.19" style="fill:rgb(209,218,240);fill-rule:nonzero;"/>
            <path d="M567.62,461.19C587.084,461.19 603.1,477.206 603.1,496.67L567.62,496.67L567.62,461.19" style="fill:rgb(237,242,253);fill-rule:nonzero;"/>
            <path d="M603.1,496.67C603.1,477.206 619.116,461.19 638.58,461.19L603.1,496.67C622.564,496.67 638.58,480.654 638.58,461.19" style="fill:rgb(220,237,254);fill-rule:nonzero;"/>
            <rect x="638.572" y="425.715" width="70.952" height="70.952" style="fill:white;"/>
            <path d="M638.57,425.71C658.034,425.71 674.05,441.726 674.05,461.19L638.57,425.71C638.57,445.174 654.586,461.19 674.05,461.19" style="fill:rgb(237,242,253);fill-rule:nonzero;"/>
            <path d="M674.05,425.71C693.514,425.71 709.53,441.726 709.53,461.19L674.05,461.19L674.05,425.71" style="fill:rgb(220,237,254);fill-rule:nonzero;"/>
            <path d="M638.57,461.19C638.57,480.654 654.586,496.67 674.05,496.67L674.05,461.19L638.57,461.19" style="fill:rgb(237,242,253);fill-rule:nonzero;"/>
            <path d="M674.05,461.19C674.05,480.654 690.066,496.67 709.53,496.67L709.53,461.19L674.05,461.19" style="fill:rgb(237,242,253);fill-rule:nonzero;"/>
            <rect x="709.524" y="425.715" width="70.952" height="70.952" style="fill:white;"/>
            <path d="M709.52,425.71C728.984,425.71 745,441.726 745,461.19L709.52,461.19L709.52,425.71" style="fill:rgb(237,242,253);fill-rule:nonzero;"/>
            <path d="M745,461.19C745,441.726 761.016,425.71 780.48,425.71L780.48,461.19L745,461.19" style="fill:rgb(220,237,254);fill-rule:nonzero;"/>
            <path d="M709.52,496.67C728.984,496.67 745,480.654 745,461.19L709.52,461.19L709.52,496.67" style="fill:rgb(237,242,253);fill-rule:nonzero;"/>
            <path d="M745,496.67C745,477.206 761.016,461.19 780.48,461.19L745,496.67C764.464,496.67 780.48,480.654 780.48,461.19" style="fill:rgb(237,242,253);fill-rule:nonzero;"/>
            <rect x="780.477" y="425.715" width="70.952" height="70.952" style="fill:white;"/>
            <path d="M780.48,425.71C780.48,445.174 796.496,461.19 815.96,461.19L815.96,425.71L780.48,425.71" style="fill:rgb(209,218,240);fill-rule:nonzero;"/>
            <path d="M815.95,461.19C815.95,441.726 831.966,425.71 851.43,425.71L815.95,461.19C835.414,461.19 851.43,445.174 851.43,425.71" style="fill:rgb(237,242,253);fill-rule:nonzero;"/>
            <path d="M780.48,496.67C799.944,496.67 815.96,480.654 815.96,461.19L780.48,461.19L780.48,496.67" style="fill:rgb(237,242,253);fill-rule:nonzero;"/>
            <path d="M815.95,461.19C835.414,461.19 851.43,477.206 851.43,496.67L815.95,496.67L815.95,461.19" style="fill:rgb(237,242,253);fill-rule:nonzero;"/>
            <rect x="851.429" y="425.715" width="70.952" height="70.952" style="fill:white;"/>
            <path d="M851.43,461.19C851.43,441.726 867.446,425.71 886.91,425.71L851.43,461.19C870.894,461.19 886.91,445.174 886.91,425.71" style="fill:rgb(220,237,254);fill-rule:nonzero;"/>
            <path d="M886.91,425.71C906.374,425.71 922.39,441.726 922.39,461.19L886.91,425.71C886.91,445.174 902.926,461.19 922.39,461.19" style="fill:rgb(220,237,254);fill-rule:nonzero;"/>
            <path d="M851.43,461.19C870.894,461.19 886.91,477.206 886.91,496.67L851.43,461.19C851.43,480.654 867.446,496.67 886.91,496.67" style="fill:rgb(220,237,254);fill-rule:nonzero;"/>
            <path d="M886.91,461.19C906.374,461.19 922.39,477.206 922.39,496.67L886.91,496.67L886.91,461.19" style="fill:rgb(209,218,240);fill-rule:nonzero;"/>
            <rect x="922.382" y="425.715" width="70.952" height="70.952" style="fill:white;"/>
            <path d="M922.38,425.71C922.38,445.174 938.396,461.19 957.86,461.19L957.86,425.71L922.38,425.71" style="fill:rgb(220,237,254);fill-rule:nonzero;"/>
            <path d="M922.38,496.67C941.844,496.67 957.86,480.654 957.86,461.19L922.38,461.19L922.38,496.67" style="fill:rgb(237,242,253);fill-rule:nonzero;"/>
            <g transform="matrix(0.922383,0,0,0.922383,0,0)">
            </g>
        </g>
    </g>
</svg>
