<svg width="16" height="16" viewBox="0 0 16 16" fill="none" xmlns="http://www.w3.org/2000/svg">
<path d="M4.29167 10.7708L7.00388 8.05863L9.71608 10.7708L10.7708 9.71608L8.05863 7.00388L10.7708 4.29167L9.70833 3.22917L6.99613 5.94137L4.28392 3.22917L3.22917 4.28392L5.94138 6.99613L3.22917 9.70833L4.29167 10.7708ZM1.5 14C1.0875 14 0.734375 13.8531 0.440625 13.5594C0.146875 13.2656 0 12.9125 0 12.5V1.5C0 1.0875 0.146875 0.734376 0.440625 0.440626C0.734375 0.146876 1.0875 0 1.5 0H12.5C12.9125 0 13.2656 0.146876 13.5594 0.440626C13.8531 0.734376 14 1.0875 14 1.5V12.5C14 12.9125 13.8531 13.2656 13.5594 13.5594C13.2656 13.8531 12.9125 14 12.5 14H1.5ZM1.5 12.5H12.5V1.5H1.5V12.5Z" fill="#AAAAAA"/>
</svg>
